<svg width="90" height="32" viewBox="0 0 90 32" fill="none" xmlns="http://www.w3.org/2000/svg">
<path d="M0 0.5H85C87.7614 0.5 90 2.73858 90 5.5V31.5H5C2.23858 31.5 0 29.2614 0 26.5V0.5Z" fill="#F88500"/>
<path d="M16.19 20.5V10.56H23.862V20.5H22.602V11.68H17.45V20.5H16.19ZM29.9768 20.64C29.3795 20.64 28.8475 20.4907 28.3808 20.192C27.9142 19.8933 27.5455 19.5153 27.2748 19.058V23.482H26.0428V13.192H27.1348V14.564C27.4242 14.116 27.8022 13.7567 28.2688 13.486C28.7355 13.206 29.2442 13.066 29.7948 13.066C30.2988 13.066 30.7608 13.1687 31.1808 13.374C31.6008 13.5793 31.9648 13.8593 32.2728 14.214C32.5808 14.5687 32.8188 14.9747 32.9868 15.432C33.1642 15.88 33.2528 16.3513 33.2528 16.846C33.2528 17.5367 33.1128 18.1713 32.8328 18.75C32.5622 19.3287 32.1795 19.7907 31.6848 20.136C31.1902 20.472 30.6208 20.64 29.9768 20.64ZM29.5988 19.576C29.9628 19.576 30.2895 19.5013 30.5788 19.352C30.8775 19.1933 31.1295 18.988 31.3348 18.736C31.5495 18.4747 31.7128 18.1807 31.8248 17.854C31.9368 17.5273 31.9928 17.1913 31.9928 16.846C31.9928 16.482 31.9275 16.1367 31.7968 15.81C31.6755 15.4833 31.4982 15.194 31.2648 14.942C31.0408 14.69 30.7748 14.494 30.4668 14.354C30.1682 14.2047 29.8415 14.13 29.4868 14.13C29.2628 14.13 29.0295 14.172 28.7868 14.256C28.5535 14.34 28.3295 14.4613 28.1148 14.62C27.9002 14.7693 27.7182 14.942 27.5688 15.138C27.4195 15.334 27.3215 15.544 27.2748 15.768V17.854C27.4148 18.1713 27.6015 18.4607 27.8348 18.722C28.0682 18.9833 28.3388 19.1933 28.6468 19.352C28.9548 19.5013 29.2722 19.576 29.5988 19.576ZM37.9575 20.64C37.4068 20.64 36.9075 20.542 36.4595 20.346C36.0115 20.1407 35.6242 19.8653 35.2975 19.52C34.9708 19.1653 34.7188 18.7593 34.5415 18.302C34.3642 17.8447 34.2755 17.364 34.2755 16.86C34.2755 16.3467 34.3642 15.8613 34.5415 15.404C34.7188 14.9467 34.9708 14.5453 35.2975 14.2C35.6242 13.8453 36.0115 13.57 36.4595 13.374C36.9168 13.1687 37.4162 13.066 37.9575 13.066C38.5082 13.066 39.0075 13.1687 39.4555 13.374C39.9035 13.57 40.2908 13.8453 40.6175 14.2C40.9535 14.5453 41.2102 14.9467 41.3875 15.404C41.5648 15.8613 41.6535 16.3467 41.6535 16.86C41.6535 17.364 41.5648 17.8447 41.3875 18.302C41.2102 18.7593 40.9582 19.1653 40.6315 19.52C40.3048 19.8653 39.9128 20.1407 39.4555 20.346C39.0075 20.542 38.5082 20.64 37.9575 20.64ZM35.5355 16.874C35.5355 17.378 35.6428 17.8353 35.8575 18.246C36.0815 18.6567 36.3755 18.9833 36.7395 19.226C37.1035 19.4593 37.5095 19.576 37.9575 19.576C38.4055 19.576 38.8115 19.4547 39.1755 19.212C39.5488 18.9693 39.8428 18.6427 40.0575 18.232C40.2815 17.812 40.3935 17.35 40.3935 16.846C40.3935 16.342 40.2815 15.8847 40.0575 15.474C39.8428 15.0633 39.5488 14.7367 39.1755 14.494C38.8115 14.2513 38.4055 14.13 37.9575 14.13C37.5095 14.13 37.1035 14.256 36.7395 14.508C36.3755 14.7507 36.0815 15.0773 35.8575 15.488C35.6428 15.8987 35.5355 16.3607 35.5355 16.874ZM46.3803 20.64C45.8297 20.64 45.3257 20.542 44.8683 20.346C44.4203 20.1407 44.0283 19.8653 43.6923 19.52C43.3657 19.1653 43.109 18.7593 42.9223 18.302C42.745 17.8447 42.6563 17.3593 42.6563 16.846C42.6563 16.1553 42.815 15.5253 43.1323 14.956C43.4497 14.3867 43.8883 13.9293 44.4483 13.584C45.0177 13.2387 45.6663 13.066 46.3943 13.066C47.1317 13.066 47.771 13.2433 48.3123 13.598C48.863 13.9433 49.2877 14.4007 49.5863 14.97C49.8943 15.53 50.0483 16.1367 50.0483 16.79C50.0483 16.8833 50.0437 16.9767 50.0343 17.07C50.0343 17.154 50.0297 17.2193 50.0203 17.266H43.9583C43.9957 17.742 44.1263 18.1667 44.3503 18.54C44.5837 18.904 44.8823 19.1933 45.2463 19.408C45.6103 19.6133 46.0023 19.716 46.4223 19.716C46.8703 19.716 47.2903 19.604 47.6823 19.38C48.0837 19.156 48.359 18.862 48.5083 18.498L49.5723 18.792C49.4137 19.1467 49.1757 19.464 48.8583 19.744C48.5503 20.024 48.1817 20.2433 47.7523 20.402C47.3323 20.5607 46.875 20.64 46.3803 20.64ZM43.9163 16.412H48.9003C48.863 15.936 48.7277 15.516 48.4943 15.152C48.261 14.788 47.9623 14.5033 47.5983 14.298C47.2343 14.0927 46.833 13.99 46.3943 13.99C45.965 13.99 45.5683 14.0927 45.2043 14.298C44.8403 14.5033 44.5417 14.788 44.3083 15.152C44.0843 15.516 43.9537 15.936 43.9163 16.412ZM51.4038 20.5V13.192H52.6358V16.202H53.4478L55.7438 13.192H57.1438L54.4138 16.734L57.4658 20.5H56.0378L53.4478 17.336H52.6358V20.5H51.4038ZM60.4556 20.5V14.284H57.9356V13.192H64.2076V14.284H61.6876V20.5H60.4556ZM65.4312 20.5V13.192H66.6632V15.684H68.1472C69.0058 15.684 69.6545 15.9033 70.0932 16.342C70.5412 16.7713 70.7652 17.336 70.7652 18.036C70.7652 18.5027 70.6672 18.9227 70.4712 19.296C70.2845 19.6693 70.0045 19.9633 69.6312 20.178C69.2578 20.3927 68.7912 20.5 68.2312 20.5H65.4312ZM66.6632 19.534H68.0632C68.4085 19.534 68.6838 19.4687 68.8892 19.338C69.1038 19.198 69.2625 19.016 69.3652 18.792C69.4678 18.568 69.5192 18.3253 69.5192 18.064C69.5192 17.812 69.4725 17.5787 69.3792 17.364C69.2858 17.1493 69.1318 16.9767 68.9172 16.846C68.7025 16.7153 68.4085 16.65 68.0352 16.65H66.6632V19.534ZM72.0252 20.5V13.206H73.2572V20.5H72.0252Z" fill="white"/>
</svg>
