<svg width="196" height="41" viewBox="0 0 196 41" fill="none" xmlns="http://www.w3.org/2000/svg">
<path d="M20.0018 16.4306C17.7304 16.4306 15.8982 18.2475 15.8982 20.5C15.8982 22.7525 17.7304 24.5693 20.0018 24.5693C22.2732 24.5693 24.1054 22.7525 24.1054 20.5C24.1054 18.2475 22.2732 16.4306 20.0018 16.4306ZM20.0018 23.1456C18.5339 23.1456 17.3339 21.9591 17.3339 20.5C17.3339 19.0408 18.5304 17.8543 20.0018 17.8543C21.4732 17.8543 22.6697 19.0408 22.6697 20.5C22.6697 21.9591 21.4697 23.1456 20.0018 23.1456ZM25.2304 16.2641C25.2304 16.7918 24.8018 17.2133 24.2732 17.2133C23.7411 17.2133 23.3161 16.7883 23.3161 16.2641C23.3161 15.74 23.7447 15.315 24.2732 15.315C24.8018 15.315 25.2304 15.74 25.2304 16.2641ZM27.9482 17.2275C27.8875 15.956 27.5946 14.8297 26.6554 13.9018C25.7197 12.9739 24.5839 12.6835 23.3018 12.6197C21.9804 12.5454 18.0197 12.5454 16.6982 12.6197C15.4197 12.68 14.2839 12.9704 13.3447 13.8983C12.4054 14.8262 12.1161 15.9525 12.0518 17.2239C11.9768 18.5343 11.9768 22.462 12.0518 23.7725C12.1125 25.0439 12.4054 26.1702 13.3447 27.0981C14.2839 28.026 15.4161 28.3164 16.6982 28.3802C18.0197 28.4545 21.9804 28.4545 23.3018 28.3802C24.5839 28.32 25.7197 28.0295 26.6554 27.0981C27.5911 26.1702 27.8839 25.0439 27.9482 23.7725C28.0232 22.462 28.0232 18.5379 27.9482 17.2275ZM26.2411 25.1785C25.9625 25.8727 25.4232 26.4075 24.7197 26.6872C23.6661 27.1016 21.1661 27.006 20.0018 27.006C18.8375 27.006 16.3339 27.0981 15.2839 26.6872C14.5839 26.411 14.0447 25.8762 13.7625 25.1785C13.3447 24.1337 13.4411 21.6545 13.4411 20.5C13.4411 19.3454 13.3482 16.8627 13.7625 15.8214C14.0411 15.1272 14.5804 14.5925 15.2839 14.3127C16.3375 13.8983 18.8375 13.9939 20.0018 13.9939C21.1661 13.9939 23.6697 13.9018 24.7197 14.3127C25.4197 14.5889 25.9589 15.1237 26.2411 15.8214C26.6589 16.8662 26.5625 19.3454 26.5625 20.5C26.5625 21.6545 26.6589 24.1372 26.2411 25.1785Z" fill="white" fill-opacity="0.5"/>
<path d="M0.5 1H35C37.4853 1 39.5 3.01472 39.5 5.5V40H5C2.51472 40 0.5 37.9853 0.5 35.5V1Z" stroke="white" stroke-opacity="0.25"/>
<path d="M52.5 1H87C89.4853 1 91.5 3.01472 91.5 5.5V40H57C54.5147 40 52.5 37.9853 52.5 35.5V1Z" fill="#F88500"/>
<path d="M81.067 15.7459C81.1975 15.3162 81.067 15 80.4391 15H78.3616C77.8326 15 77.5892 15.2716 77.4587 15.5741C77.4587 15.5741 76.4005 18.0869 74.905 19.7162C74.4218 20.1872 74.1996 20.3384 73.9351 20.3384C73.8046 20.3384 73.6035 20.1872 73.6035 19.7575V15.7459C73.6035 15.2303 73.4554 15 73.018 15H69.7518C69.4203 15 69.2228 15.2406 69.2228 15.4641C69.2228 15.9522 69.9705 16.0656 70.0481 17.4406V20.4244C70.0481 21.0775 69.9282 21.1978 69.6637 21.1978C68.9582 21.1978 67.244 18.6747 66.2282 15.7872C66.0236 15.2269 65.8226 15 65.29 15H63.2125C62.6199 15 62.5 15.2716 62.5 15.5741C62.5 16.1103 63.2054 18.7744 65.7838 22.2944C67.5015 24.6972 69.9211 26 72.1221 26C73.4448 26 73.607 25.7113 73.607 25.2128C73.607 22.9166 73.4871 22.7 74.1502 22.7C74.4571 22.7 74.9862 22.8513 76.2207 24.0097C77.6315 25.3847 77.8643 26 78.6544 26H80.7319C81.3245 26 81.6243 25.7113 81.4514 25.1406C81.0564 23.9409 78.3863 21.4728 78.2664 21.3078C77.9595 20.9228 78.0477 20.7509 78.2664 20.4072C78.2699 20.4038 80.806 16.925 81.067 15.7459Z" fill="white"/>
<path d="M52.5 1H87C89.4853 1 91.5 3.01472 91.5 5.5V40H57C54.5147 40 52.5 37.9853 52.5 35.5V1Z" stroke="#F88500"/>
<path d="M132 20.5483C132 16.129 128.419 12.5483 124 12.5483C119.581 12.5483 116 16.129 116 20.5483C116 24.5412 118.925 27.8509 122.75 28.4516V22.8609H120.718V20.5483H122.75V18.7858C122.75 16.7809 123.944 15.6735 125.772 15.6735C126.647 15.6735 127.563 15.8296 127.563 15.8296V17.7974H126.554C125.56 17.7974 125.25 18.4141 125.25 19.0467V20.5483H127.469L127.114 22.8609H125.25V28.4516C129.075 27.8509 132 24.5412 132 20.5483Z" fill="white" fill-opacity="0.5"/>
<path d="M104.5 1H139C141.485 1 143.5 3.01472 143.5 5.5V40H109C106.515 40 104.5 37.9853 104.5 35.5V1Z" stroke="white" stroke-opacity="0.25"/>
<path d="M182.355 17.241C182.366 17.3831 182.366 17.5253 182.366 17.6674C182.366 22.0024 179.066 26.9974 173.036 26.9974C171.178 26.9974 169.452 26.4593 168 25.5253C168.264 25.5558 168.518 25.5659 168.792 25.5659C170.325 25.5659 171.736 25.0482 172.863 24.1649C171.421 24.1344 170.213 23.1903 169.797 21.8908C170 21.9212 170.203 21.9415 170.416 21.9415C170.711 21.9415 171.005 21.9009 171.279 21.8299C169.777 21.5253 168.65 20.2055 168.65 18.6116V18.571C169.086 18.8146 169.594 18.9669 170.132 18.9872C169.249 18.3984 168.67 17.3933 168.67 16.2562C168.67 15.6471 168.832 15.0887 169.117 14.6014C170.731 16.5913 173.157 17.8907 175.878 18.0329C175.827 17.7892 175.797 17.5355 175.797 17.2816C175.797 15.4745 177.259 14.0024 179.076 14.0024C180.02 14.0024 180.873 14.3984 181.472 15.038C182.213 14.8959 182.924 14.6217 183.553 14.2461C183.31 15.0075 182.792 15.6471 182.112 16.0532C182.772 15.9822 183.411 15.7994 184 15.5456C183.553 16.1953 182.995 16.774 182.355 17.241Z" fill="white" fill-opacity="0.5"/>
<path d="M156.5 1H191C193.485 1 195.5 3.01472 195.5 5.5V40H161C158.515 40 156.5 37.9853 156.5 35.5V1Z" stroke="white" stroke-opacity="0.25"/>
</svg>
