<svg width="134" height="33" viewBox="0 0 134 33" fill="none" xmlns="http://www.w3.org/2000/svg">
<g clip-path="url(#clip0_453_275)">
<path d="M23.0033 12.4271C20.7319 12.4271 18.8997 14.244 18.8997 16.4965C18.8997 18.749 20.7319 20.5658 23.0033 20.5658C25.2747 20.5658 27.1069 18.749 27.1069 16.4965C27.1069 14.244 25.2747 12.4271 23.0033 12.4271ZM23.0033 19.1421C21.5355 19.1421 20.3355 17.9556 20.3355 16.4965C20.3355 15.0373 21.5319 13.8508 23.0033 13.8508C24.4747 13.8508 25.6712 15.0373 25.6712 16.4965C25.6712 17.9556 24.4712 19.1421 23.0033 19.1421ZM28.2319 12.2606C28.2319 12.7883 27.8033 13.2098 27.2747 13.2098C26.7426 13.2098 26.3176 12.7848 26.3176 12.2606C26.3176 11.7365 26.7462 11.3115 27.2747 11.3115C27.8033 11.3115 28.2319 11.7365 28.2319 12.2606ZM30.9497 13.224C30.889 11.9525 30.5962 10.8263 29.6569 9.89834C28.7212 8.97042 27.5855 8.68 26.3033 8.61625C24.9819 8.54188 21.0212 8.54188 19.6997 8.61625C18.4212 8.67646 17.2855 8.96688 16.3462 9.89479C15.4069 10.8227 15.1176 11.949 15.0533 13.2204C14.9783 14.5308 14.9783 18.4585 15.0533 19.769C15.114 21.0404 15.4069 22.1667 16.3462 23.0946C17.2855 24.0225 18.4176 24.3129 19.6997 24.3767C21.0212 24.451 24.9819 24.451 26.3033 24.3767C27.5855 24.3165 28.7212 24.026 29.6569 23.0946C30.5926 22.1667 30.8855 21.0404 30.9497 19.769C31.0247 18.4585 31.0247 14.5344 30.9497 13.224ZM29.2426 21.175C28.964 21.8692 28.4247 22.404 27.7212 22.6838C26.6676 23.0981 24.1676 23.0025 23.0033 23.0025C21.839 23.0025 19.3355 23.0946 18.2855 22.6838C17.5855 22.4075 17.0462 21.8727 16.764 21.175C16.3462 20.1302 16.4426 17.651 16.4426 16.4965C16.4426 15.3419 16.3497 12.8592 16.764 11.8179C17.0426 11.1238 17.5819 10.589 18.2855 10.3092C19.339 9.89479 21.839 9.99042 23.0033 9.99042C24.1676 9.99042 26.6712 9.89834 27.7212 10.3092C28.4212 10.5854 28.9605 11.1202 29.2426 11.8179C29.6605 12.8627 29.564 15.3419 29.564 16.4965C29.564 17.651 29.6605 20.1338 29.2426 21.175Z" fill="#6F7A8B" fill-opacity="0.75"/>
</g>
<path d="M61.567 11.7459C61.6975 11.3162 61.567 11 60.9391 11H58.8616C58.3326 11 58.0892 11.2716 57.9587 11.5741C57.9587 11.5741 56.9005 14.0869 55.405 15.7162C54.9218 16.1872 54.6996 16.3384 54.4351 16.3384C54.3046 16.3384 54.1035 16.1872 54.1035 15.7575V11.7459C54.1035 11.2303 53.9554 11 53.518 11H50.2518C49.9203 11 49.7228 11.2406 49.7228 11.4641C49.7228 11.9522 50.4705 12.0656 50.5481 13.4406V16.4244C50.5481 17.0775 50.4282 17.1978 50.1637 17.1978C49.4582 17.1978 47.744 14.6747 46.7282 11.7872C46.5236 11.2269 46.3226 11 45.79 11H43.7125C43.1199 11 43 11.2716 43 11.5741C43 12.1103 43.7054 14.7744 46.2838 18.2944C48.0015 20.6972 50.4211 22 52.6221 22C53.9448 22 54.107 21.7113 54.107 21.2128C54.107 18.9166 53.9871 18.7 54.6502 18.7C54.9571 18.7 55.4862 18.8513 56.7207 20.0097C58.1315 21.3847 58.3643 22 59.1544 22H61.2319C61.8245 22 62.1243 21.7113 61.9514 21.1406C61.5564 19.9409 58.8863 17.4728 58.7664 17.3078C58.4595 16.9228 58.5477 16.7509 58.7664 16.4072C58.7699 16.4038 61.306 12.925 61.567 11.7459Z" fill="#6F7A8B" fill-opacity="0.75"/>
<path d="M91 16.5484C91 12.129 87.4194 8.54839 83 8.54839C78.5806 8.54839 75 12.129 75 16.5484C75 20.5413 77.9255 23.851 81.75 24.4516V18.861H79.7177V16.5484H81.75V14.7858C81.75 12.781 82.9435 11.6735 84.7716 11.6735C85.6471 11.6735 86.5626 11.8297 86.5626 11.8297V13.7974H85.5535C84.56 13.7974 84.25 14.4142 84.25 15.0468V16.5484H86.4687L86.1139 18.861H84.25V24.4516C88.0745 23.851 91 20.5413 91 16.5484Z" fill="#6F7A8B" fill-opacity="0.75"/>
<path d="M117.355 13.6719C117.366 13.814 117.366 13.9562 117.366 14.0983C117.366 18.4333 114.066 23.4283 108.036 23.4283C106.178 23.4283 104.452 22.8902 103 21.9562C103.264 21.9867 103.518 21.9968 103.792 21.9968C105.325 21.9968 106.736 21.4791 107.863 20.5958C106.421 20.5653 105.213 19.6212 104.797 18.3217C105 18.3521 105.203 18.3724 105.416 18.3724C105.711 18.3724 106.005 18.3318 106.279 18.2608C104.777 17.9562 103.65 16.6364 103.65 15.0425V15.0019C104.086 15.2455 104.594 15.3978 105.132 15.4181C104.249 14.8293 103.67 13.8242 103.67 12.6871C103.67 12.078 103.832 11.5196 104.117 11.0323C105.731 13.0222 108.157 14.3216 110.878 14.4638C110.827 14.2201 110.797 13.9663 110.797 13.7125C110.797 11.9054 112.259 10.4333 114.076 10.4333C115.02 10.4333 115.873 10.8293 116.472 11.4689C117.213 11.3267 117.924 11.0526 118.553 10.677C118.31 11.4384 117.792 12.078 117.112 12.4841C117.772 12.4131 118.411 12.2303 119 11.9765C118.553 12.6262 117.995 13.2049 117.355 13.6719Z" fill="#6F7A8B" fill-opacity="0.75"/>
<defs>
<clipPath id="clip0_453_275">
<rect width="16" height="18.1333" fill="white" transform="translate(15 7.43333)"/>
</clipPath>
</defs>
</svg>
